<?xml version="1.0" encoding="UTF-8" standalone="no"?>
<!DOCTYPE svg PUBLIC "-//W3C//DTD SVG 1.1//EN"
 "http://www.w3.org/Graphics/SVG/1.1/DTD/svg11.dtd">
<!-- Generated by graphviz version 2.43.0 (0)
 -->
<!-- Title: Project Pages: 1 -->
<svg width="524pt" height="559pt"
 viewBox="0.00 0.00 524.00 559.00" xmlns="http://www.w3.org/2000/svg" xmlns:xlink="http://www.w3.org/1999/xlink">
<g id="graph0" class="graph" transform="scale(1 1) rotate(0) translate(4 555)">
<title>Project</title>
<polygon fill="white" stroke="transparent" points="-4,4 -4,-555 520,-555 520,4 -4,4"/>
<g id="clust1" class="cluster">
<title>cluster PeripheralBlocks</title>
<polygon fill="none" stroke="black" points="8,-8 8,-543 158,-543 158,-8 8,-8"/>
<text text-anchor="middle" x="83" y="-527.8" font-family="Times,serif" font-size="14.00">Peripheral Blocks</text>
</g>
<g id="clust2" class="cluster">
<title>cluster ArchitectureBlocks</title>
<polygon fill="none" stroke="black" points="178,-164 178,-401 335,-401 335,-164 178,-164"/>
<text text-anchor="middle" x="256.5" y="-385.8" font-family="Times,serif" font-size="14.00">Architecture Blocks</text>
</g>
<g id="clust3" class="cluster">
<title>cluster EnvironmentBlocks</title>
<polygon fill="none" stroke="black" points="355,-164 355,-401 516,-401 516,-164 355,-164"/>
<text text-anchor="middle" x="435.5" y="-385.8" font-family="Times,serif" font-size="14.00">Environment Blocks</text>
</g>
<!-- MPSoC_DBG -->
<g id="node1" class="node">
<title>MPSoC_DBG</title>
<polygon fill="none" stroke="black" points="28.5,-131 28.5,-169 137.5,-169 137.5,-131 28.5,-131"/>
<text text-anchor="middle" x="83" y="-153.8" font-family="Times,serif" font-size="14.00">MPSoC_DBG</text>
<text text-anchor="middle" x="83" y="-138.8" font-family="Times,serif" font-size="14.00">Peripheral</text>
</g>
<!-- MPSoC_RISCV -->
<g id="node10" class="node">
<title>MPSoC_RISCV</title>
<polygon fill="none" stroke="black" points="195,-172.5 195,-225.5 317,-225.5 317,-172.5 195,-172.5"/>
<text text-anchor="middle" x="256" y="-210.3" font-family="Times,serif" font-size="14.00">MPSoC_RISCV</text>
<text text-anchor="middle" x="256" y="-195.3" font-family="Times,serif" font-size="14.00">Architecture</text>
<text text-anchor="middle" x="256" y="-180.3" font-family="Times,serif" font-size="14.00">rv64&#45;pvt&#45;gcfdq</text>
</g>
<!-- MPSoC_DBG&#45;&gt;MPSoC_RISCV -->
<g id="edge1" class="edge">
<title>MPSoC_DBG&#45;&gt;MPSoC_RISCV</title>
<path fill="none" stroke="black" d="M137.64,-165.37C152.64,-169.67 169.18,-174.41 184.98,-178.94"/>
<polygon fill="black" stroke="black" points="184.13,-182.33 194.71,-181.72 186.06,-175.6 184.13,-182.33"/>
</g>
<!-- SoC_RISCV -->
<g id="node11" class="node">
<title>SoC_RISCV</title>
<polygon fill="none" stroke="black" points="198,-244.5 198,-297.5 314,-297.5 314,-244.5 198,-244.5"/>
<text text-anchor="middle" x="256" y="-282.3" font-family="Times,serif" font-size="14.00">SoC_RISCV</text>
<text text-anchor="middle" x="256" y="-267.3" font-family="Times,serif" font-size="14.00">Architecture</text>
<text text-anchor="middle" x="256" y="-252.3" font-family="Times,serif" font-size="14.00">rv64&#45;pv&#45;gcfdq</text>
</g>
<!-- MPSoC_DBG&#45;&gt;SoC_RISCV -->
<g id="edge10" class="edge">
<title>MPSoC_DBG&#45;&gt;SoC_RISCV</title>
<path fill="none" stroke="black" d="M137.57,-164.52C145.11,-168.31 152.24,-173.06 158,-179 176.4,-197.97 160.21,-215.45 178,-235 181.3,-238.63 185.05,-241.92 189.06,-244.91"/>
<polygon fill="black" stroke="black" points="187.36,-247.98 197.63,-250.61 191.24,-242.15 187.36,-247.98"/>
</g>
<!-- PU_RISCV -->
<g id="node12" class="node">
<title>PU_RISCV</title>
<polygon fill="none" stroke="black" points="202.5,-316.5 202.5,-369.5 309.5,-369.5 309.5,-316.5 202.5,-316.5"/>
<text text-anchor="middle" x="256" y="-354.3" font-family="Times,serif" font-size="14.00">PU_RISCV</text>
<text text-anchor="middle" x="256" y="-339.3" font-family="Times,serif" font-size="14.00">Architecture</text>
<text text-anchor="middle" x="256" y="-324.3" font-family="Times,serif" font-size="14.00">rv64&#45;p&#45;gcfdq</text>
</g>
<!-- MPSoC_DBG&#45;&gt;PU_RISCV -->
<g id="edge19" class="edge">
<title>MPSoC_DBG&#45;&gt;PU_RISCV</title>
<path fill="none" stroke="black" d="M137.86,-163.22C145.55,-167.19 152.65,-172.33 158,-179 194.03,-223.91 143.42,-260.96 178,-307 182.23,-312.63 187.55,-317.41 193.42,-321.46"/>
<polygon fill="black" stroke="black" points="191.98,-324.68 202.34,-326.9 195.62,-318.71 191.98,-324.68"/>
</g>
<!-- MPSoC_DMA -->
<g id="node2" class="node">
<title>MPSoC_DMA</title>
<polygon fill="none" stroke="black" points="27.5,-74 27.5,-112 138.5,-112 138.5,-74 27.5,-74"/>
<text text-anchor="middle" x="83" y="-96.8" font-family="Times,serif" font-size="14.00">MPSoC_DMA</text>
<text text-anchor="middle" x="83" y="-81.8" font-family="Times,serif" font-size="14.00">Peripheral</text>
</g>
<!-- MPSoC_DMA&#45;&gt;MPSoC_RISCV -->
<g id="edge2" class="edge">
<title>MPSoC_DMA&#45;&gt;MPSoC_RISCV</title>
<path fill="none" stroke="black" d="M138.23,-112.08C145.04,-115.1 151.78,-118.42 158,-122 179.33,-134.28 200.98,-150.97 218.4,-165.68"/>
<polygon fill="black" stroke="black" points="216.22,-168.42 226.09,-172.27 220.77,-163.1 216.22,-168.42"/>
</g>
<!-- MPSoC_DMA&#45;&gt;SoC_RISCV -->
<g id="edge11" class="edge">
<title>MPSoC_DMA&#45;&gt;SoC_RISCV</title>
<path fill="none" stroke="black" d="M138.86,-106.9C146.13,-110.77 152.84,-115.7 158,-122 190.32,-161.46 146.96,-194.53 178,-235 181.23,-239.21 185.07,-242.95 189.29,-246.26"/>
<polygon fill="black" stroke="black" points="187.58,-249.33 197.8,-252.13 191.55,-243.57 187.58,-249.33"/>
</g>
<!-- MPSoC_DMA&#45;&gt;PU_RISCV -->
<g id="edge20" class="edge">
<title>MPSoC_DMA&#45;&gt;PU_RISCV</title>
<path fill="none" stroke="black" d="M138.5,-106.2C146.01,-110.16 152.89,-115.31 158,-122 208.21,-187.71 129.91,-239.72 178,-307 182.25,-312.94 187.73,-317.93 193.81,-322.12"/>
<polygon fill="black" stroke="black" points="192.06,-325.14 202.42,-327.34 195.69,-319.16 192.06,-325.14"/>
</g>
<!-- MPSoC_GPIO -->
<g id="node3" class="node">
<title>MPSoC_GPIO</title>
<polygon fill="none" stroke="black" points="26.5,-473 26.5,-511 139.5,-511 139.5,-473 26.5,-473"/>
<text text-anchor="middle" x="83" y="-495.8" font-family="Times,serif" font-size="14.00">MPSoC_GPIO</text>
<text text-anchor="middle" x="83" y="-480.8" font-family="Times,serif" font-size="14.00">Peripheral</text>
</g>
<!-- MPSoC_GPIO&#45;&gt;MPSoC_RISCV -->
<g id="edge3" class="edge">
<title>MPSoC_GPIO&#45;&gt;MPSoC_RISCV</title>
<path fill="none" stroke="black" d="M139.69,-479.06C146.76,-475.26 153.19,-470.35 158,-464 188.84,-423.28 148.72,-276.86 178,-235 180.52,-231.39 183.5,-228.14 186.79,-225.21"/>
<polygon fill="black" stroke="black" points="189.19,-227.78 194.99,-218.92 184.93,-222.23 189.19,-227.78"/>
</g>
<!-- MPSoC_GPIO&#45;&gt;SoC_RISCV -->
<g id="edge12" class="edge">
<title>MPSoC_GPIO&#45;&gt;SoC_RISCV</title>
<path fill="none" stroke="black" d="M139.84,-478.69C146.79,-474.95 153.15,-470.15 158,-464 201.56,-408.77 136.55,-363.83 178,-307 181.26,-302.53 185.22,-298.59 189.6,-295.14"/>
<polygon fill="black" stroke="black" points="191.64,-297.98 197.88,-289.41 187.66,-292.22 191.64,-297.98"/>
</g>
<!-- MPSoC_GPIO&#45;&gt;PU_RISCV -->
<g id="edge21" class="edge">
<title>MPSoC_GPIO&#45;&gt;PU_RISCV</title>
<path fill="none" stroke="black" d="M139.84,-474.63C146.24,-471.57 152.44,-468.04 158,-464 189.7,-440.96 216.71,-405.01 234.11,-378.27"/>
<polygon fill="black" stroke="black" points="237.22,-379.91 239.64,-369.59 231.32,-376.15 237.22,-379.91"/>
</g>
<!-- MPSoC_MPI -->
<g id="node4" class="node">
<title>MPSoC_MPI</title>
<polygon fill="none" stroke="black" points="30.5,-416 30.5,-454 135.5,-454 135.5,-416 30.5,-416"/>
<text text-anchor="middle" x="83" y="-438.8" font-family="Times,serif" font-size="14.00">MPSoC_MPI</text>
<text text-anchor="middle" x="83" y="-423.8" font-family="Times,serif" font-size="14.00">Peripheral</text>
</g>
<!-- MPSoC_MPI&#45;&gt;MPSoC_RISCV -->
<g id="edge4" class="edge">
<title>MPSoC_MPI&#45;&gt;MPSoC_RISCV</title>
<path fill="none" stroke="black" d="M135.82,-423.79C144.34,-419.79 152.26,-414.37 158,-407 205.33,-346.32 133,-297.43 178,-235 180.52,-231.5 183.48,-228.33 186.73,-225.46"/>
<polygon fill="black" stroke="black" points="188.97,-228.14 194.79,-219.29 184.72,-222.59 188.97,-228.14"/>
</g>
<!-- MPSoC_MPI&#45;&gt;SoC_RISCV -->
<g id="edge13" class="edge">
<title>MPSoC_MPI&#45;&gt;SoC_RISCV</title>
<path fill="none" stroke="black" d="M135.72,-423.23C144.14,-419.28 152.05,-414.02 158,-407 187.31,-372.43 150.02,-342.65 178,-307 181.28,-302.83 185.15,-299.11 189.39,-295.82"/>
<polygon fill="black" stroke="black" points="191.65,-298.51 197.93,-289.98 187.7,-292.73 191.65,-298.51"/>
</g>
<!-- MPSoC_MPI&#45;&gt;PU_RISCV -->
<g id="edge22" class="edge">
<title>MPSoC_MPI&#45;&gt;PU_RISCV</title>
<path fill="none" stroke="black" d="M135.59,-417.17C143.23,-414.05 150.91,-410.63 158,-407 175.73,-397.94 194.22,-386.35 210.23,-375.52"/>
<polygon fill="black" stroke="black" points="212.58,-378.15 218.85,-369.61 208.63,-372.38 212.58,-378.15"/>
</g>
<!-- MPSoC_MPRAM -->
<g id="node5" class="node">
<title>MPSoC_MPRAM</title>
<polygon fill="none" stroke="black" points="16,-359 16,-397 150,-397 150,-359 16,-359"/>
<text text-anchor="middle" x="83" y="-381.8" font-family="Times,serif" font-size="14.00">MPSoC_MPRAM</text>
<text text-anchor="middle" x="83" y="-366.8" font-family="Times,serif" font-size="14.00">Peripheral</text>
</g>
<!-- MPSoC_MPRAM&#45;&gt;MPSoC_RISCV -->
<g id="edge5" class="edge">
<title>MPSoC_MPRAM&#45;&gt;MPSoC_RISCV</title>
<path fill="none" stroke="black" d="M148.39,-358.99C151.94,-356.37 155.2,-353.39 158,-350 191.05,-310.01 146.49,-276.21 178,-235 180.5,-231.73 183.37,-228.75 186.5,-226.02"/>
<polygon fill="black" stroke="black" points="188.88,-228.61 194.74,-219.78 184.66,-223.03 188.88,-228.61"/>
</g>
<!-- MPSoC_MPRAM&#45;&gt;SoC_RISCV -->
<g id="edge14" class="edge">
<title>MPSoC_MPRAM&#45;&gt;SoC_RISCV</title>
<path fill="none" stroke="black" d="M145.99,-358.96C150.31,-356.34 154.38,-353.37 158,-350 173.44,-335.65 163.11,-321.92 178,-307 181.4,-303.59 185.19,-300.46 189.21,-297.6"/>
<polygon fill="black" stroke="black" points="191.23,-300.47 197.74,-292.1 187.44,-294.58 191.23,-300.47"/>
</g>
<!-- MPSoC_MPRAM&#45;&gt;PU_RISCV -->
<g id="edge23" class="edge">
<title>MPSoC_MPRAM&#45;&gt;PU_RISCV</title>
<path fill="none" stroke="black" d="M150.11,-364.47C164.03,-361.62 178.67,-358.62 192.45,-355.8"/>
<polygon fill="black" stroke="black" points="193.21,-359.22 202.31,-353.79 191.81,-352.36 193.21,-359.22"/>
</g>
<!-- MPSoC_MSI -->
<g id="node6" class="node">
<title>MPSoC_MSI</title>
<polygon fill="none" stroke="black" points="30.5,-302 30.5,-340 135.5,-340 135.5,-302 30.5,-302"/>
<text text-anchor="middle" x="83" y="-324.8" font-family="Times,serif" font-size="14.00">MPSoC_MSI</text>
<text text-anchor="middle" x="83" y="-309.8" font-family="Times,serif" font-size="14.00">Peripheral</text>
</g>
<!-- MPSoC_MSI&#45;&gt;MPSoC_RISCV -->
<g id="edge6" class="edge">
<title>MPSoC_MSI&#45;&gt;MPSoC_RISCV</title>
<path fill="none" stroke="black" d="M135.73,-308.2C143.95,-304.36 151.78,-299.41 158,-293 176.99,-273.44 159.76,-255.27 178,-235 180.65,-232.06 183.58,-229.34 186.72,-226.83"/>
<polygon fill="black" stroke="black" points="188.77,-229.67 194.87,-221.01 184.7,-223.97 188.77,-229.67"/>
</g>
<!-- MPSoC_MSI&#45;&gt;SoC_RISCV -->
<g id="edge15" class="edge">
<title>MPSoC_MSI&#45;&gt;SoC_RISCV</title>
<path fill="none" stroke="black" d="M135.77,-305.86C152.12,-301.08 170.43,-295.73 187.71,-290.68"/>
<polygon fill="black" stroke="black" points="189.12,-293.91 197.74,-287.74 187.15,-287.19 189.12,-293.91"/>
</g>
<!-- MPSoC_MSI&#45;&gt;PU_RISCV -->
<g id="edge24" class="edge">
<title>MPSoC_MSI&#45;&gt;PU_RISCV</title>
<path fill="none" stroke="black" d="M135.77,-327.66C153.52,-329.94 173.58,-332.52 192.11,-334.91"/>
<polygon fill="black" stroke="black" points="191.86,-338.41 202.22,-336.21 192.75,-331.46 191.86,-338.41"/>
</g>
<!-- MPSoC_NoC -->
<g id="node7" class="node">
<title>MPSoC_NoC</title>
<polygon fill="none" stroke="black" points="29.5,-17 29.5,-55 136.5,-55 136.5,-17 29.5,-17"/>
<text text-anchor="middle" x="83" y="-39.8" font-family="Times,serif" font-size="14.00">MPSoC_NoC</text>
<text text-anchor="middle" x="83" y="-24.8" font-family="Times,serif" font-size="14.00">Peripheral</text>
</g>
<!-- MPSoC_NoC&#45;&gt;MPSoC_RISCV -->
<g id="edge7" class="edge">
<title>MPSoC_NoC&#45;&gt;MPSoC_RISCV</title>
<path fill="none" stroke="black" d="M136.6,-51.46C144.18,-54.92 151.57,-59.06 158,-64 192.75,-90.68 220.39,-133.18 237.14,-163.37"/>
<polygon fill="black" stroke="black" points="234.14,-165.18 241.99,-172.31 240.3,-161.85 234.14,-165.18"/>
</g>
<!-- MPSoC_NoC&#45;&gt;SoC_RISCV -->
<g id="edge16" class="edge">
<title>MPSoC_NoC&#45;&gt;SoC_RISCV</title>
<path fill="none" stroke="black" d="M136.56,-47.57C144.8,-51.53 152.42,-56.85 158,-64 205.08,-124.32 133.23,-172.94 178,-235 181.24,-239.49 185.18,-243.43 189.55,-246.9"/>
<polygon fill="black" stroke="black" points="187.6,-249.81 197.82,-252.63 191.59,-244.06 187.6,-249.81"/>
</g>
<!-- MPSoC_SPRAM -->
<g id="node8" class="node">
<title>MPSoC_SPRAM</title>
<polygon fill="none" stroke="black" points="18,-245 18,-283 148,-283 148,-245 18,-245"/>
<text text-anchor="middle" x="83" y="-267.8" font-family="Times,serif" font-size="14.00">MPSoC_SPRAM</text>
<text text-anchor="middle" x="83" y="-252.8" font-family="Times,serif" font-size="14.00">Peripheral</text>
</g>
<!-- MPSoC_SPRAM&#45;&gt;MPSoC_RISCV -->
<g id="edge8" class="edge">
<title>MPSoC_SPRAM&#45;&gt;MPSoC_RISCV</title>
<path fill="none" stroke="black" d="M134.56,-244.89C142.41,-241.92 150.42,-238.88 158,-236 166.88,-232.63 176.21,-229.07 185.44,-225.56"/>
<polygon fill="black" stroke="black" points="186.89,-228.75 194.99,-221.92 184.4,-222.21 186.89,-228.75"/>
</g>
<!-- MPSoC_SPRAM&#45;&gt;SoC_RISCV -->
<g id="edge17" class="edge">
<title>MPSoC_SPRAM&#45;&gt;SoC_RISCV</title>
<path fill="none" stroke="black" d="M148.16,-266.63C161.02,-267.15 174.57,-267.71 187.54,-268.24"/>
<polygon fill="black" stroke="black" points="187.66,-271.75 197.8,-268.66 187.95,-264.75 187.66,-271.75"/>
</g>
<!-- MPSoC_SPRAM&#45;&gt;PU_RISCV -->
<g id="edge25" class="edge">
<title>MPSoC_SPRAM&#45;&gt;PU_RISCV</title>
<path fill="none" stroke="black" d="M137.24,-283.1C144.34,-286.15 151.43,-289.48 158,-293 167.56,-298.13 168.61,-301.57 178,-307 182.79,-309.77 187.83,-312.5 192.94,-315.14"/>
<polygon fill="black" stroke="black" points="191.68,-318.43 202.19,-319.8 194.83,-312.17 191.68,-318.43"/>
</g>
<!-- MPSoC_UART -->
<g id="node9" class="node">
<title>MPSoC_UART</title>
<polygon fill="none" stroke="black" points="25,-188 25,-226 141,-226 141,-188 25,-188"/>
<text text-anchor="middle" x="83" y="-210.8" font-family="Times,serif" font-size="14.00">MPSoC_UART</text>
<text text-anchor="middle" x="83" y="-195.8" font-family="Times,serif" font-size="14.00">Peripheral</text>
</g>
<!-- MPSoC_UART&#45;&gt;MPSoC_RISCV -->
<g id="edge9" class="edge">
<title>MPSoC_UART&#45;&gt;MPSoC_RISCV</title>
<path fill="none" stroke="black" d="M141.42,-204.31C155.24,-203.67 170.16,-202.97 184.5,-202.3"/>
<polygon fill="black" stroke="black" points="184.98,-205.78 194.81,-201.82 184.66,-198.79 184.98,-205.78"/>
</g>
<!-- MPSoC_UART&#45;&gt;SoC_RISCV -->
<g id="edge18" class="edge">
<title>MPSoC_UART&#45;&gt;SoC_RISCV</title>
<path fill="none" stroke="black" d="M134.84,-226.03C151.54,-232.28 170.36,-239.32 188.06,-245.95"/>
<polygon fill="black" stroke="black" points="187.17,-249.35 197.76,-249.58 189.62,-242.79 187.17,-249.35"/>
</g>
<!-- MPSoC_UART&#45;&gt;PU_RISCV -->
<g id="edge26" class="edge">
<title>MPSoC_UART&#45;&gt;PU_RISCV</title>
<path fill="none" stroke="black" d="M141.27,-222.97C147.5,-226.5 153.28,-230.78 158,-236 180.01,-260.3 156.78,-282.01 178,-307 182.43,-312.21 187.78,-316.72 193.57,-320.61"/>
<polygon fill="black" stroke="black" points="191.94,-323.71 202.32,-325.86 195.55,-317.71 191.94,-323.71"/>
</g>
<!-- MPSoC_DV -->
<g id="node13" class="node">
<title>MPSoC_DV</title>
<polygon fill="none" stroke="black" points="374,-172.5 374,-225.5 496,-225.5 496,-172.5 374,-172.5"/>
<text text-anchor="middle" x="435" y="-210.3" font-family="Times,serif" font-size="14.00">MPSoC_DV</text>
<text text-anchor="middle" x="435" y="-195.3" font-family="Times,serif" font-size="14.00">Environment</text>
<text text-anchor="middle" x="435" y="-180.3" font-family="Times,serif" font-size="14.00">rv64&#45;pvt&#45;gcfdq</text>
</g>
<!-- MPSoC_RISCV&#45;&gt;MPSoC_DV -->
<g id="edge29" class="edge">
<title>MPSoC_RISCV&#45;&gt;MPSoC_DV</title>
<path fill="none" stroke="black" d="M317.42,-199C332.23,-199 348.21,-199 363.45,-199"/>
<polygon fill="black" stroke="black" points="363.85,-202.5 373.85,-199 363.85,-195.5 363.85,-202.5"/>
</g>
<!-- SoC_DV -->
<g id="node14" class="node">
<title>SoC_DV</title>
<polygon fill="none" stroke="black" points="377,-244.5 377,-297.5 493,-297.5 493,-244.5 377,-244.5"/>
<text text-anchor="middle" x="435" y="-282.3" font-family="Times,serif" font-size="14.00">SoC_DV</text>
<text text-anchor="middle" x="435" y="-267.3" font-family="Times,serif" font-size="14.00">Environment</text>
<text text-anchor="middle" x="435" y="-252.3" font-family="Times,serif" font-size="14.00">rv64&#45;pv&#45;gcfdq</text>
</g>
<!-- SoC_RISCV&#45;&gt;SoC_DV -->
<g id="edge28" class="edge">
<title>SoC_RISCV&#45;&gt;SoC_DV</title>
<path fill="none" stroke="black" d="M314.47,-271C331.17,-271 349.57,-271 366.82,-271"/>
<polygon fill="black" stroke="black" points="366.82,-274.5 376.82,-271 366.82,-267.5 366.82,-274.5"/>
</g>
<!-- PU_DV -->
<g id="node15" class="node">
<title>PU_DV</title>
<polygon fill="none" stroke="black" points="380,-316.5 380,-369.5 490,-369.5 490,-316.5 380,-316.5"/>
<text text-anchor="middle" x="435" y="-354.3" font-family="Times,serif" font-size="14.00">PU_DV</text>
<text text-anchor="middle" x="435" y="-339.3" font-family="Times,serif" font-size="14.00">Environment</text>
<text text-anchor="middle" x="435" y="-324.3" font-family="Times,serif" font-size="14.00">rv64&#45;p&#45;gcfdq</text>
</g>
<!-- PU_RISCV&#45;&gt;PU_DV -->
<g id="edge27" class="edge">
<title>PU_RISCV&#45;&gt;PU_DV</title>
<path fill="none" stroke="black" d="M309.63,-343C328.46,-343 349.9,-343 369.61,-343"/>
<polygon fill="black" stroke="black" points="369.74,-346.5 379.74,-343 369.74,-339.5 369.74,-346.5"/>
</g>
</g>
</svg>
