<?xml version="1.0" encoding="UTF-8" standalone="no"?>
<!DOCTYPE svg PUBLIC "-//W3C//DTD SVG 1.1//EN"
 "http://www.w3.org/Graphics/SVG/1.1/DTD/svg11.dtd">
<!-- Generated by graphviz version 2.43.0 (0)
 -->
<!-- Title: Project Pages: 1 -->
<svg width="524pt" height="559pt"
 viewBox="0.00 0.00 524.00 559.00" xmlns="http://www.w3.org/2000/svg" xmlns:xlink="http://www.w3.org/1999/xlink">
<g id="graph0" class="graph" transform="scale(1 1) rotate(0) translate(4 555)">
<title>Project</title>
<polygon fill="white" stroke="transparent" points="-4,4 -4,-555 520,-555 520,4 -4,4"/>
<g id="clust1" class="cluster">
<title>cluster PeripheralBlocks</title>
<polygon fill="none" stroke="black" points="8,-8 8,-543 158,-543 158,-8 8,-8"/>
<text text-anchor="middle" x="83" y="-527.8" font-family="Times,serif" font-size="14.00">Peripheral Blocks</text>
</g>
<g id="clust2" class="cluster">
<title>cluster ArchitectureBlocks</title>
<polygon fill="none" stroke="black" points="178,-164 178,-401 335,-401 335,-164 178,-164"/>
<text text-anchor="middle" x="256.5" y="-385.8" font-family="Times,serif" font-size="14.00">Architecture Blocks</text>
</g>
<g id="clust3" class="cluster">
<title>cluster EnvironmentBlocks</title>
<polygon fill="none" stroke="black" points="355,-164 355,-401 516,-401 516,-164 355,-164"/>
<text text-anchor="middle" x="435.5" y="-385.8" font-family="Times,serif" font-size="14.00">Environment Blocks</text>
</g>
<!-- MPSoC_DBG -->
<g id="node1" class="node">
<title>MPSoC_DBG</title>
<polygon fill="none" stroke="black" points="28.5,-131 28.5,-169 137.5,-169 137.5,-131 28.5,-131"/>
<text text-anchor="middle" x="83" y="-153.8" font-family="Times,serif" font-size="14.00">MPSoC_DBG</text>
<text text-anchor="middle" x="83" y="-138.8" font-family="Times,serif" font-size="14.00">Peripheral</text>
</g>
<!-- MPSoC_RISCV -->
<g id="node10" class="node">
<title>MPSoC_RISCV</title>
<polygon fill="none" stroke="black" points="195,-172.5 195,-225.5 317,-225.5 317,-172.5 195,-172.5"/>
<text text-anchor="middle" x="256" y="-210.3" font-family="Times,serif" font-size="14.00">MPSoC_RISCV</text>
<text text-anchor="middle" x="256" y="-195.3" font-family="Times,serif" font-size="14.00">Architecture</text>
<text text-anchor="middle" x="256" y="-180.3" font-family="Times,serif" font-size="14.00">rv64&#45;pvt&#45;gc</text>
</g>
<!-- MPSoC_DBG&#45;&gt;MPSoC_RISCV -->
<g id="edge1" class="edge">
<title>MPSoC_DBG&#45;&gt;MPSoC_RISCV</title>
<path fill="none" stroke="black" d="M137.64,-165.37C152.64,-169.67 169.18,-174.41 184.98,-178.94"/>
<polygon fill="black" stroke="black" points="184.13,-182.33 194.71,-181.72 186.06,-175.6 184.13,-182.33"/>
</g>
<!-- SoC_RISCV -->
<g id="node11" class="node">
<title>SoC_RISCV</title>
<polygon fill="none" stroke="black" points="203,-244.5 203,-297.5 309,-297.5 309,-244.5 203,-244.5"/>
<text text-anchor="middle" x="256" y="-282.3" font-family="Times,serif" font-size="14.00">SoC_RISCV</text>
<text text-anchor="middle" x="256" y="-267.3" font-family="Times,serif" font-size="14.00">Architecture</text>
<text text-anchor="middle" x="256" y="-252.3" font-family="Times,serif" font-size="14.00">rv64&#45;pv&#45;gc</text>
</g>
<!-- MPSoC_DBG&#45;&gt;SoC_RISCV -->
<g id="edge10" class="edge">
<title>MPSoC_DBG&#45;&gt;SoC_RISCV</title>
<path fill="none" stroke="black" d="M137.57,-164.52C145.11,-168.31 152.24,-173.06 158,-179 176.4,-197.97 160.21,-215.45 178,-235 182.6,-240.06 188.07,-244.47 193.92,-248.29"/>
<polygon fill="black" stroke="black" points="192.34,-251.43 202.74,-253.49 195.9,-245.4 192.34,-251.43"/>
</g>
<!-- PU_RISCV -->
<g id="node12" class="node">
<title>PU_RISCV</title>
<polygon fill="none" stroke="black" points="203,-316.5 203,-369.5 309,-369.5 309,-316.5 203,-316.5"/>
<text text-anchor="middle" x="256" y="-354.3" font-family="Times,serif" font-size="14.00">PU_RISCV</text>
<text text-anchor="middle" x="256" y="-339.3" font-family="Times,serif" font-size="14.00">Architecture</text>
<text text-anchor="middle" x="256" y="-324.3" font-family="Times,serif" font-size="14.00">rv64&#45;p&#45;gc</text>
</g>
<!-- MPSoC_DBG&#45;&gt;PU_RISCV -->
<g id="edge19" class="edge">
<title>MPSoC_DBG&#45;&gt;PU_RISCV</title>
<path fill="none" stroke="black" d="M137.86,-163.22C145.55,-167.19 152.65,-172.33 158,-179 194.03,-223.91 143.42,-260.96 178,-307 182.39,-312.84 187.96,-317.77 194.09,-321.92"/>
<polygon fill="black" stroke="black" points="192.36,-324.96 202.74,-327.11 195.96,-318.96 192.36,-324.96"/>
</g>
<!-- MPSoC_DMA -->
<g id="node2" class="node">
<title>MPSoC_DMA</title>
<polygon fill="none" stroke="black" points="27.5,-74 27.5,-112 138.5,-112 138.5,-74 27.5,-74"/>
<text text-anchor="middle" x="83" y="-96.8" font-family="Times,serif" font-size="14.00">MPSoC_DMA</text>
<text text-anchor="middle" x="83" y="-81.8" font-family="Times,serif" font-size="14.00">Peripheral</text>
</g>
<!-- MPSoC_DMA&#45;&gt;MPSoC_RISCV -->
<g id="edge2" class="edge">
<title>MPSoC_DMA&#45;&gt;MPSoC_RISCV</title>
<path fill="none" stroke="black" d="M138.23,-112.08C145.04,-115.1 151.78,-118.42 158,-122 179.33,-134.28 200.98,-150.97 218.4,-165.68"/>
<polygon fill="black" stroke="black" points="216.22,-168.42 226.09,-172.27 220.77,-163.1 216.22,-168.42"/>
</g>
<!-- MPSoC_DMA&#45;&gt;SoC_RISCV -->
<g id="edge11" class="edge">
<title>MPSoC_DMA&#45;&gt;SoC_RISCV</title>
<path fill="none" stroke="black" d="M138.86,-106.9C146.13,-110.77 152.84,-115.7 158,-122 190.32,-161.46 146.96,-194.53 178,-235 182.45,-240.8 188.05,-245.7 194.2,-249.83"/>
<polygon fill="black" stroke="black" points="192.49,-252.88 202.87,-255.01 196.08,-246.87 192.49,-252.88"/>
</g>
<!-- MPSoC_DMA&#45;&gt;PU_RISCV -->
<g id="edge20" class="edge">
<title>MPSoC_DMA&#45;&gt;PU_RISCV</title>
<path fill="none" stroke="black" d="M138.5,-106.2C146.01,-110.16 152.89,-115.31 158,-122 208.21,-187.71 129.91,-239.72 178,-307 182.31,-313.03 187.88,-318.07 194.07,-322.29"/>
<polygon fill="black" stroke="black" points="192.44,-325.4 202.82,-327.55 196.05,-319.4 192.44,-325.4"/>
</g>
<!-- MPSoC_GPIO -->
<g id="node3" class="node">
<title>MPSoC_GPIO</title>
<polygon fill="none" stroke="black" points="26.5,-473 26.5,-511 139.5,-511 139.5,-473 26.5,-473"/>
<text text-anchor="middle" x="83" y="-495.8" font-family="Times,serif" font-size="14.00">MPSoC_GPIO</text>
<text text-anchor="middle" x="83" y="-480.8" font-family="Times,serif" font-size="14.00">Peripheral</text>
</g>
<!-- MPSoC_GPIO&#45;&gt;MPSoC_RISCV -->
<g id="edge3" class="edge">
<title>MPSoC_GPIO&#45;&gt;MPSoC_RISCV</title>
<path fill="none" stroke="black" d="M139.69,-479.06C146.76,-475.26 153.19,-470.35 158,-464 188.84,-423.28 148.72,-276.86 178,-235 180.52,-231.39 183.5,-228.14 186.79,-225.21"/>
<polygon fill="black" stroke="black" points="189.19,-227.78 194.99,-218.92 184.93,-222.23 189.19,-227.78"/>
</g>
<!-- MPSoC_GPIO&#45;&gt;SoC_RISCV -->
<g id="edge12" class="edge">
<title>MPSoC_GPIO&#45;&gt;SoC_RISCV</title>
<path fill="none" stroke="black" d="M139.84,-478.69C146.79,-474.95 153.15,-470.15 158,-464 201.56,-408.77 136.55,-363.83 178,-307 182.36,-301.02 187.98,-295.99 194.18,-291.79"/>
<polygon fill="black" stroke="black" points="196.16,-294.68 202.94,-286.54 192.56,-288.68 196.16,-294.68"/>
</g>
<!-- MPSoC_GPIO&#45;&gt;PU_RISCV -->
<g id="edge21" class="edge">
<title>MPSoC_GPIO&#45;&gt;PU_RISCV</title>
<path fill="none" stroke="black" d="M139.84,-474.63C146.24,-471.57 152.44,-468.04 158,-464 189.7,-440.96 216.71,-405.01 234.11,-378.27"/>
<polygon fill="black" stroke="black" points="237.22,-379.91 239.64,-369.59 231.32,-376.15 237.22,-379.91"/>
</g>
<!-- MPSoC_MPI -->
<g id="node4" class="node">
<title>MPSoC_MPI</title>
<polygon fill="none" stroke="black" points="30.5,-416 30.5,-454 135.5,-454 135.5,-416 30.5,-416"/>
<text text-anchor="middle" x="83" y="-438.8" font-family="Times,serif" font-size="14.00">MPSoC_MPI</text>
<text text-anchor="middle" x="83" y="-423.8" font-family="Times,serif" font-size="14.00">Peripheral</text>
</g>
<!-- MPSoC_MPI&#45;&gt;MPSoC_RISCV -->
<g id="edge4" class="edge">
<title>MPSoC_MPI&#45;&gt;MPSoC_RISCV</title>
<path fill="none" stroke="black" d="M135.82,-423.79C144.34,-419.79 152.26,-414.37 158,-407 205.33,-346.32 133,-297.43 178,-235 180.52,-231.5 183.48,-228.33 186.73,-225.46"/>
<polygon fill="black" stroke="black" points="188.97,-228.14 194.79,-219.29 184.72,-222.59 188.97,-228.14"/>
</g>
<!-- MPSoC_MPI&#45;&gt;SoC_RISCV -->
<g id="edge13" class="edge">
<title>MPSoC_MPI&#45;&gt;SoC_RISCV</title>
<path fill="none" stroke="black" d="M135.72,-423.23C144.14,-419.28 152.05,-414.02 158,-407 187.31,-372.43 150.02,-342.65 178,-307 182.35,-301.46 187.75,-296.74 193.66,-292.72"/>
<polygon fill="black" stroke="black" points="195.86,-295.48 202.62,-287.32 192.25,-289.48 195.86,-295.48"/>
</g>
<!-- MPSoC_MPI&#45;&gt;PU_RISCV -->
<g id="edge22" class="edge">
<title>MPSoC_MPI&#45;&gt;PU_RISCV</title>
<path fill="none" stroke="black" d="M135.59,-417.17C143.23,-414.05 150.91,-410.63 158,-407 175.73,-397.94 194.22,-386.35 210.23,-375.52"/>
<polygon fill="black" stroke="black" points="212.58,-378.15 218.85,-369.61 208.63,-372.38 212.58,-378.15"/>
</g>
<!-- MPSoC_MPRAM -->
<g id="node5" class="node">
<title>MPSoC_MPRAM</title>
<polygon fill="none" stroke="black" points="16,-359 16,-397 150,-397 150,-359 16,-359"/>
<text text-anchor="middle" x="83" y="-381.8" font-family="Times,serif" font-size="14.00">MPSoC_MPRAM</text>
<text text-anchor="middle" x="83" y="-366.8" font-family="Times,serif" font-size="14.00">Peripheral</text>
</g>
<!-- MPSoC_MPRAM&#45;&gt;MPSoC_RISCV -->
<g id="edge5" class="edge">
<title>MPSoC_MPRAM&#45;&gt;MPSoC_RISCV</title>
<path fill="none" stroke="black" d="M148.39,-358.99C151.94,-356.37 155.2,-353.39 158,-350 191.05,-310.01 146.49,-276.21 178,-235 180.5,-231.73 183.37,-228.75 186.5,-226.02"/>
<polygon fill="black" stroke="black" points="188.88,-228.61 194.74,-219.78 184.66,-223.03 188.88,-228.61"/>
</g>
<!-- MPSoC_MPRAM&#45;&gt;SoC_RISCV -->
<g id="edge14" class="edge">
<title>MPSoC_MPRAM&#45;&gt;SoC_RISCV</title>
<path fill="none" stroke="black" d="M145.99,-358.96C150.31,-356.34 154.38,-353.37 158,-350 173.44,-335.65 163.11,-321.92 178,-307 182.76,-302.23 188.28,-298.01 194.13,-294.31"/>
<polygon fill="black" stroke="black" points="195.98,-297.28 202.88,-289.24 192.47,-291.22 195.98,-297.28"/>
</g>
<!-- MPSoC_MPRAM&#45;&gt;PU_RISCV -->
<g id="edge23" class="edge">
<title>MPSoC_MPRAM&#45;&gt;PU_RISCV</title>
<path fill="none" stroke="black" d="M150.11,-364.47C164.18,-361.59 178.99,-358.56 192.9,-355.71"/>
<polygon fill="black" stroke="black" points="193.75,-359.11 202.84,-353.68 192.34,-352.25 193.75,-359.11"/>
</g>
<!-- MPSoC_MSI -->
<g id="node6" class="node">
<title>MPSoC_MSI</title>
<polygon fill="none" stroke="black" points="30.5,-302 30.5,-340 135.5,-340 135.5,-302 30.5,-302"/>
<text text-anchor="middle" x="83" y="-324.8" font-family="Times,serif" font-size="14.00">MPSoC_MSI</text>
<text text-anchor="middle" x="83" y="-309.8" font-family="Times,serif" font-size="14.00">Peripheral</text>
</g>
<!-- MPSoC_MSI&#45;&gt;MPSoC_RISCV -->
<g id="edge6" class="edge">
<title>MPSoC_MSI&#45;&gt;MPSoC_RISCV</title>
<path fill="none" stroke="black" d="M135.73,-308.2C143.95,-304.36 151.78,-299.41 158,-293 176.99,-273.44 159.76,-255.27 178,-235 180.65,-232.06 183.58,-229.34 186.72,-226.83"/>
<polygon fill="black" stroke="black" points="188.77,-229.67 194.87,-221.01 184.7,-223.97 188.77,-229.67"/>
</g>
<!-- MPSoC_MSI&#45;&gt;SoC_RISCV -->
<g id="edge15" class="edge">
<title>MPSoC_MSI&#45;&gt;SoC_RISCV</title>
<path fill="none" stroke="black" d="M135.77,-305.86C153.85,-300.58 174.33,-294.59 193.15,-289.09"/>
<polygon fill="black" stroke="black" points="194.2,-292.42 202.82,-286.26 192.24,-285.71 194.2,-292.42"/>
</g>
<!-- MPSoC_MSI&#45;&gt;PU_RISCV -->
<g id="edge24" class="edge">
<title>MPSoC_MSI&#45;&gt;PU_RISCV</title>
<path fill="none" stroke="black" d="M135.77,-327.66C153.77,-329.98 174.14,-332.6 192.89,-335.01"/>
<polygon fill="black" stroke="black" points="192.45,-338.48 202.82,-336.29 193.34,-331.54 192.45,-338.48"/>
</g>
<!-- MPSoC_NoC -->
<g id="node7" class="node">
<title>MPSoC_NoC</title>
<polygon fill="none" stroke="black" points="29.5,-17 29.5,-55 136.5,-55 136.5,-17 29.5,-17"/>
<text text-anchor="middle" x="83" y="-39.8" font-family="Times,serif" font-size="14.00">MPSoC_NoC</text>
<text text-anchor="middle" x="83" y="-24.8" font-family="Times,serif" font-size="14.00">Peripheral</text>
</g>
<!-- MPSoC_NoC&#45;&gt;MPSoC_RISCV -->
<g id="edge7" class="edge">
<title>MPSoC_NoC&#45;&gt;MPSoC_RISCV</title>
<path fill="none" stroke="black" d="M136.6,-51.46C144.18,-54.92 151.57,-59.06 158,-64 192.75,-90.68 220.39,-133.18 237.14,-163.37"/>
<polygon fill="black" stroke="black" points="234.14,-165.18 241.99,-172.31 240.3,-161.85 234.14,-165.18"/>
</g>
<!-- MPSoC_NoC&#45;&gt;SoC_RISCV -->
<g id="edge16" class="edge">
<title>MPSoC_NoC&#45;&gt;SoC_RISCV</title>
<path fill="none" stroke="black" d="M136.56,-47.57C144.8,-51.53 152.42,-56.85 158,-64 205.08,-124.32 133.23,-172.94 178,-235 182.33,-241.01 187.93,-246.04 194.12,-250.25"/>
<polygon fill="black" stroke="black" points="192.5,-253.36 202.87,-255.51 196.1,-247.36 192.5,-253.36"/>
</g>
<!-- MPSoC_SPRAM -->
<g id="node8" class="node">
<title>MPSoC_SPRAM</title>
<polygon fill="none" stroke="black" points="18,-245 18,-283 148,-283 148,-245 18,-245"/>
<text text-anchor="middle" x="83" y="-267.8" font-family="Times,serif" font-size="14.00">MPSoC_SPRAM</text>
<text text-anchor="middle" x="83" y="-252.8" font-family="Times,serif" font-size="14.00">Peripheral</text>
</g>
<!-- MPSoC_SPRAM&#45;&gt;MPSoC_RISCV -->
<g id="edge8" class="edge">
<title>MPSoC_SPRAM&#45;&gt;MPSoC_RISCV</title>
<path fill="none" stroke="black" d="M134.56,-244.89C142.41,-241.92 150.42,-238.88 158,-236 166.88,-232.63 176.21,-229.07 185.44,-225.56"/>
<polygon fill="black" stroke="black" points="186.89,-228.75 194.99,-221.92 184.4,-222.21 186.89,-228.75"/>
</g>
<!-- MPSoC_SPRAM&#45;&gt;SoC_RISCV -->
<g id="edge17" class="edge">
<title>MPSoC_SPRAM&#45;&gt;SoC_RISCV</title>
<path fill="none" stroke="black" d="M148.16,-266.63C162.65,-267.22 178.01,-267.85 192.44,-268.44"/>
<polygon fill="black" stroke="black" points="192.61,-271.95 202.75,-268.86 192.9,-264.95 192.61,-271.95"/>
</g>
<!-- MPSoC_SPRAM&#45;&gt;PU_RISCV -->
<g id="edge25" class="edge">
<title>MPSoC_SPRAM&#45;&gt;PU_RISCV</title>
<path fill="none" stroke="black" d="M137.24,-283.1C144.34,-286.15 151.43,-289.48 158,-293 167.56,-298.13 168.61,-301.57 178,-307 182.99,-309.89 188.26,-312.73 193.59,-315.48"/>
<polygon fill="black" stroke="black" points="192.09,-318.64 202.6,-320 195.23,-312.38 192.09,-318.64"/>
</g>
<!-- MPSoC_UART -->
<g id="node9" class="node">
<title>MPSoC_UART</title>
<polygon fill="none" stroke="black" points="25,-188 25,-226 141,-226 141,-188 25,-188"/>
<text text-anchor="middle" x="83" y="-210.8" font-family="Times,serif" font-size="14.00">MPSoC_UART</text>
<text text-anchor="middle" x="83" y="-195.8" font-family="Times,serif" font-size="14.00">Peripheral</text>
</g>
<!-- MPSoC_UART&#45;&gt;MPSoC_RISCV -->
<g id="edge9" class="edge">
<title>MPSoC_UART&#45;&gt;MPSoC_RISCV</title>
<path fill="none" stroke="black" d="M141.42,-204.31C155.24,-203.67 170.16,-202.97 184.5,-202.3"/>
<polygon fill="black" stroke="black" points="184.98,-205.78 194.81,-201.82 184.66,-198.79 184.98,-205.78"/>
</g>
<!-- MPSoC_UART&#45;&gt;SoC_RISCV -->
<g id="edge18" class="edge">
<title>MPSoC_UART&#45;&gt;SoC_RISCV</title>
<path fill="none" stroke="black" d="M134.84,-226.03C153.2,-232.9 174.13,-240.73 193.32,-247.91"/>
<polygon fill="black" stroke="black" points="192.28,-251.26 202.87,-251.49 194.73,-244.71 192.28,-251.26"/>
</g>
<!-- MPSoC_UART&#45;&gt;PU_RISCV -->
<g id="edge26" class="edge">
<title>MPSoC_UART&#45;&gt;PU_RISCV</title>
<path fill="none" stroke="black" d="M141.27,-222.97C147.5,-226.5 153.28,-230.78 158,-236 180.01,-260.3 156.78,-282.01 178,-307 182.49,-312.29 187.93,-316.85 193.82,-320.77"/>
<polygon fill="black" stroke="black" points="192.33,-323.96 202.71,-326.07 195.91,-317.95 192.33,-323.96"/>
</g>
<!-- MPSoC_DV -->
<g id="node13" class="node">
<title>MPSoC_DV</title>
<polygon fill="none" stroke="black" points="380,-172.5 380,-225.5 490,-225.5 490,-172.5 380,-172.5"/>
<text text-anchor="middle" x="435" y="-210.3" font-family="Times,serif" font-size="14.00">MPSoC_DV</text>
<text text-anchor="middle" x="435" y="-195.3" font-family="Times,serif" font-size="14.00">Environment</text>
<text text-anchor="middle" x="435" y="-180.3" font-family="Times,serif" font-size="14.00">rv64&#45;pvt&#45;gc</text>
</g>
<!-- MPSoC_RISCV&#45;&gt;MPSoC_DV -->
<g id="edge29" class="edge">
<title>MPSoC_RISCV&#45;&gt;MPSoC_DV</title>
<path fill="none" stroke="black" d="M317.42,-199C334.17,-199 352.42,-199 369.4,-199"/>
<polygon fill="black" stroke="black" points="369.79,-202.5 379.79,-199 369.79,-195.5 369.79,-202.5"/>
</g>
<!-- SoC_DV -->
<g id="node14" class="node">
<title>SoC_DV</title>
<polygon fill="none" stroke="black" points="380,-244.5 380,-297.5 490,-297.5 490,-244.5 380,-244.5"/>
<text text-anchor="middle" x="435" y="-282.3" font-family="Times,serif" font-size="14.00">SoC_DV</text>
<text text-anchor="middle" x="435" y="-267.3" font-family="Times,serif" font-size="14.00">Environment</text>
<text text-anchor="middle" x="435" y="-252.3" font-family="Times,serif" font-size="14.00">rv64&#45;pv&#45;gc</text>
</g>
<!-- SoC_RISCV&#45;&gt;SoC_DV -->
<g id="edge28" class="edge">
<title>SoC_RISCV&#45;&gt;SoC_DV</title>
<path fill="none" stroke="black" d="M309.15,-271C328.08,-271 349.7,-271 369.56,-271"/>
<polygon fill="black" stroke="black" points="369.77,-274.5 379.77,-271 369.77,-267.5 369.77,-274.5"/>
</g>
<!-- PU_DV -->
<g id="node15" class="node">
<title>PU_DV</title>
<polygon fill="none" stroke="black" points="380,-316.5 380,-369.5 490,-369.5 490,-316.5 380,-316.5"/>
<text text-anchor="middle" x="435" y="-354.3" font-family="Times,serif" font-size="14.00">PU_DV</text>
<text text-anchor="middle" x="435" y="-339.3" font-family="Times,serif" font-size="14.00">Environment</text>
<text text-anchor="middle" x="435" y="-324.3" font-family="Times,serif" font-size="14.00">rv64&#45;p&#45;gc</text>
</g>
<!-- PU_RISCV&#45;&gt;PU_DV -->
<g id="edge27" class="edge">
<title>PU_RISCV&#45;&gt;PU_DV</title>
<path fill="none" stroke="black" d="M309.15,-343C328.08,-343 349.7,-343 369.56,-343"/>
<polygon fill="black" stroke="black" points="369.77,-346.5 379.77,-343 369.77,-339.5 369.77,-346.5"/>
</g>
</g>
</svg>
